<?xml version="1.0" encoding="UTF-8"?>
<svg version="1.1" xmlns="http://www.w3.org/2000/svg" width="192" height="192">
<path d="M0 0 C2.33708364 0.00849672 4.67170164 -0.02033342 7.00854492 -0.05200195 C30.93637073 -0.16386805 52.99551619 9.80743778 70.30737305 26.21557617 C81.92013509 37.82833822 90.57724134 50.73169522 95.5378418 66.44604492 C95.80636963 67.27289795 96.07489746 68.09975098 96.3515625 68.95166016 C98.76612735 77.28982372 99.03143383 85.29858701 98.98388672 93.90820312 C98.97539 96.24528677 99.00422014 98.57990477 99.03588867 100.91674805 C99.14775476 124.84457385 89.17644894 146.90371932 72.76831055 164.21557617 C61.1555485 175.82833822 48.2521915 184.48544446 32.5378418 189.44604492 C31.71098877 189.71457275 30.88413574 189.98310059 30.03222656 190.25976562 C21.694063 192.67433047 13.68529971 192.93963696 5.07568359 192.89208984 C2.73859995 192.88359312 0.40398195 192.91242326 -1.93286133 192.9440918 C-25.86068713 193.05595789 -47.9198326 183.08465206 -65.23168945 166.67651367 C-76.8444515 155.06375163 -85.50155775 142.16039462 -90.4621582 126.44604492 C-90.73068604 125.61919189 -90.99921387 124.79233887 -91.27587891 123.94042969 C-93.69044375 115.60226613 -93.95575024 107.59350283 -93.90820312 98.98388672 C-93.8997064 96.64680308 -93.92853654 94.31218508 -93.96020508 91.9753418 C-94.07207117 68.04751599 -84.10076534 45.98837053 -67.69262695 28.67651367 C-56.07986491 17.06375163 -43.1765079 8.40664538 -27.4621582 3.44604492 C-26.63530518 3.17751709 -25.80845215 2.90898926 -24.95654297 2.63232422 C-16.61837941 0.21775937 -8.60961611 -0.04754711 0 0 Z " fill="#3B94D8" transform="translate(93.462158203125,-0.446044921875)"/>
<path d="M0 0 C12.86094063 -0.87796089 23.75194324 6.22088401 33.1171875 14.23046875 C33.62523926 14.66166016 34.13329102 15.09285156 34.65673828 15.53710938 C41.99046369 21.81593664 48.17915466 28.5958551 54.1171875 36.23046875 C60.57887729 44.50077401 69.74412164 53.94230477 80.5546875 55.60546875 C87.81027482 55.95939984 92.92768512 53.83243122 98.4921875 49.29296875 C103.14930771 43.38200848 102.85059591 36.41968201 102.1171875 29.23046875 C99.62431827 23.96774482 95.94087412 20.84400396 90.9296875 17.98046875 C83.91299967 16.109352 78.62389917 16.60321073 72.1796875 20.04296875 C69.64888132 21.51775509 67.51588692 22.81455928 65.48828125 24.9296875 C64.1171875 26.23046875 64.1171875 26.23046875 61.1171875 26.23046875 C59.07421875 24.04296875 59.07421875 24.04296875 56.9296875 21.23046875 C56.21425781 20.30234375 55.49882813 19.37421875 54.76171875 18.41796875 C54.21902344 17.69609375 53.67632812 16.97421875 53.1171875 16.23046875 C55.62716208 10.01009697 62.02708943 6.70068635 67.859375 3.92578125 C78.3871193 -0.35404359 87.39238724 -1.23537868 98.1171875 3.23046875 C107.19923591 7.93744401 115.0667263 15.50593675 118.4921875 25.29296875 C120.50368567 34.74701015 120.48896079 44.93166109 115.1171875 53.23046875 C114.66988281 53.92527344 114.22257813 54.62007812 113.76171875 55.3359375 C107.26913229 64.61354764 99.26183604 69.90501059 88.1171875 72.23046875 C75.90502513 73.55835093 65.68985932 68.42290866 56.1171875 61.23046875 C47.76582875 54.38459245 40.75929583 46.74025903 34.1171875 38.23046875 C29.0959831 31.97912519 23.61977706 26.9368183 17.1171875 22.23046875 C16.385 21.69808594 15.6528125 21.16570312 14.8984375 20.6171875 C8.93451573 16.78169433 3.09376858 15.89210422 -3.8828125 17.23046875 C-7.10563974 18.76589701 -9.41420999 20.67285413 -11.8828125 23.23046875 C-12.7078125 24.07609375 -13.5328125 24.92171875 -14.3828125 25.79296875 C-17.13872384 32.10859889 -16.83894233 39.13710755 -14.8203125 45.66796875 C-11.50245644 50.05610096 -7.1385738 54.76384498 -1.484375 55.57421875 C6.3830072 55.98720469 10.99279105 54.20436155 17.5234375 49.859375 C19.83238335 48.40932919 21.46134196 47.6751976 24.1171875 47.23046875 C25.48638034 48.63261809 26.83717459 50.05275348 28.1796875 51.48046875 C28.93378906 52.269375 29.68789062 53.05828125 30.46484375 53.87109375 C32.1171875 56.23046875 32.1171875 56.23046875 32.125 58.3125 C28.26948812 65.64992764 17.78722413 68.93861757 10.44921875 71.35546875 C1.2804097 73.76322165 -7.56736647 71.95550888 -15.87109375 67.55078125 C-24.17495554 62.10086808 -30.26295438 53.76767155 -32.8828125 44.23046875 C-33.83242259 33.67433797 -33.5232192 24.18681168 -26.7890625 15.54296875 C-19.0094861 6.62238781 -11.92969926 1.46027439 0 0 Z " fill="#F9FCFD" transform="translate(52.8828125,59.76953125)"/>
</svg>
